PathFileType	4	(X/Y/Z)	0_coords_data.trc
DataRate	CameraRate	NumFrames	NumMarkers	Units	OrigDataRate	OrigDataStartFrame	OrigNumFrames
30.0	30.0	7	21	m	30.0	1	72
Frame#	Time	THUMB_TIP	THUMB_IP	THUMB_MCP	THUMB_CMC	INDEX_TIP	INDEX_DIP	INDEX_PIP	INDEX_MCP	MIDDLE_TIP	MIDDLE_DIP	MIDDLE_PIP	MIDDLE_MCP	RING_TIP	RING_DIP	RING_PIP	RING_MCP	PINKY_TIP	PINKY_DIP	PINKY_PIP	PINKY_MCP	WRIST
X1	Y1	Z1	X2	Y2	Z2	X3	Y3	Z3	X4	Y4	Z4	X5	Y5	Z5	X6	Y6	Z6	X7	Y7	Z7	X8	Y8	Z8	X9	Y9	Z9	X10	Y10	Z10	X11	Y11	Z11	X12	Y12	Z12	X13	Y13	Z13	X14	Y14	Z14	X15	Y15	Z15	X16	Y16	Z16	X17	Y17	Z17	X18	Y18	Z18	X19	Y19	Z19	X20	Y20	Z20	X21	Y21	Z21
0	0.0	-0.007167329788208008	-0.05538830184936523	1.0088900146484374	-0.009041760444641113	-0.035223899841308595	0.993135986328125	-0.02523259925842285	-0.01617300033569336	0.978416015625	-0.028620199203491212	0.015938400268554687	0.9726489868164062	-0.016645999908447267	-0.12442299652099609	0.9568820190429688	-0.016293600082397462	-0.09996179962158203	0.9527550048828125	-0.01684670066833496	-0.0768322982788086	0.9487009887695312	-0.01375179958343506	-0.035597999572753905	0.9339320068359375	-0.004629930019378662	-0.03586669921875	0.9740469970703125	-0.002042920112609863	-0.05768830108642578	0.9753619995117188	0.00525487995147705	-0.0718468017578125	0.9562990112304688	0.013574199676513672	-0.03155719947814942	0.9324730224609376	0.018619400024414062	-0.032981998443603514	0.9833369750976563	0.01723810005187988	-0.05117670059204102	0.9862550048828125	0.029892499923706056	-0.062458599090576175	0.96618701171875	0.034601898193359376	-0.024265199661254882	0.9434329833984375	0.08192299652099609	-0.07524210357666015	0.9565009765625	0.07042400360107422	-0.05635639953613281	0.9604749755859375	0.05845000076293945	-0.040118198394775394	0.9598159790039062	0.03947549819946289	-0.013025899887084962	0.966375	-0.00760496997833252	0.05025320053100586	0.9663369750976563
1	0.03333333333333333	-0.005204480171203613	-0.054735401153564456	1.008	-0.006092209815979004	-0.036366199493408205	0.9916640014648438	-0.02379599952697754	-0.016645599365234375	0.9780130004882812	-0.02485689926147461	0.01734939956665039	0.9719199829101562	-0.015381099700927735	-0.12293099975585937	0.9560499877929688	-0.01603030014038086	-0.10019899749755859	0.952843994140625	-0.016217599868774413	-0.0769999008178711	0.9485789794921875	-0.01281779956817627	-0.0347598991394043	0.93375	-0.0027699201107025144	-0.034375	0.9728270263671875	-0.000442947000265121	-0.05547840118408203	0.9761240234375	0.00570980978012085	-0.07090959930419923	0.956458984375	0.013126299858093262	-0.031038400650024413	0.9330339965820312	0.014697400093078614	-0.031095199584960938	0.98014501953125	0.01707390022277832	-0.05039609909057617	0.983447998046875	0.03047599983215332	-0.061835601806640626	0.9668350219726562	0.032832199096679685	-0.023349700927734376	0.9460399780273437	0.08296579742431641	-0.07414430236816406	0.9557849731445313	0.07101679992675781	-0.05635630035400391	0.9596729736328125	0.05913600158691406	-0.04033010101318359	0.9613369750976563	0.041354698181152345	-0.013910200119018555	0.9645250244140625	-0.007861470222473145	0.05372309875488281	0.9685759887695312
2	0.06666666666666667	-0.005269609928131103	-0.05495249938964844	1.008280029296875	-0.0060293498039245596	-0.036424400329589844	0.9917570190429688	-0.023583900451660155	-0.017021099090576173	0.9779099731445312	-0.024576499938964845	0.01684760093688965	0.97227099609375	-0.015219499588012695	-0.12327400207519532	0.9560750122070313	-0.015892800331115724	-0.10053900146484375	0.95285302734375	-0.016034200668334962	-0.07736699676513673	0.94843701171875	-0.01268690013885498	-0.03526639938354492	0.9336199951171875	-0.002951240062713623	-0.03471530151367187	0.9731160278320312	-0.000512300014495849	-0.05610499954223633	0.9761489868164063	0.0058583498001098635	-0.07120559692382812	0.9564810180664063	0.01320359992980957	-0.031268699645996094	0.933198974609375	0.014552300453186034	-0.03110930061340332	0.9796010131835937	0.017147600173950197	-0.05075009918212891	0.9835189819335938	0.030607799530029296	-0.06212030029296875	0.967041015625	0.03289250183105469	-0.02370140075683594	0.9461259765625	0.08320919799804688	-0.07432489776611328	0.9561190185546875	0.0712114028930664	-0.05663779830932617	0.9597620239257812	0.059257701873779295	-0.04067940139770508	0.9617520141601562	0.04135049819946289	-0.014267399787902832	0.96481201171875	-0.00792937994003296	0.05325450134277344	0.9682570190429688
3	0.1	-0.00490831995010376	-0.055534099578857424	1.0079299926757812	-0.006031020164489746	-0.03709170150756836	0.9915159912109375	-0.024055200576782225	-0.017107500076293945	0.9778140258789062	-0.02482029914855957	0.016486299514770507	0.9722999877929688	-0.014791799545288085	-0.12369499969482421	0.9558319702148438	-0.015510700225830077	-0.10098899841308594	0.9526669921875	-0.01578059959411621	-0.07776349639892578	0.9483599853515625	-0.0125177001953125	-0.03552669906616211	0.9331079711914062	-0.002268290042877197	-0.03509450149536133	0.9709340209960937	-0.000410757988691329	-0.05650439834594727	0.9759359741210938	0.006142610073089599	-0.07162950134277343	0.9562109985351562	0.01342590045928955	-0.031574899673461915	0.9329669799804687	0.013965800285339355	-0.03194659996032715	0.9812979736328125	0.017383399963378905	-0.0509718017578125	0.9832830200195313	0.03096310043334961	-0.06243529891967774	0.96685302734375	0.03310179901123047	-0.023997800827026367	0.9459769897460938	0.08368679809570312	-0.07442630004882812	0.9559669799804688	0.07154129791259765	-0.05676789855957031	0.9597949829101563	0.059520301818847654	-0.04077370071411133	0.961552978515625	0.04152859878540039	-0.014421500205993653	0.9644739990234374	-0.007884970188140869	0.05281230163574219	0.9684819946289063
4	0.13333333333333333	-0.004909969806671142	-0.0563671989440918	1.0074099731445312	-0.005584259986877441	-0.037266998291015624	0.9913790283203125	-0.0236919002532959	-0.017565399169921874	0.9776539916992187	-0.02451580047607422	0.015771599769592286	0.971822998046875	-0.014567299842834473	-0.12391100311279298	0.9552139892578125	-0.015283699989318847	-0.10118299865722656	0.9521300048828125	-0.015552900314331054	-0.07799729919433594	0.9478090209960938	-0.01231410026550293	-0.035823600769042965	0.932791015625	-0.001785910010337829	-0.03527209854125977	0.9707789916992188	3.2778099179267e-05	-0.05687039947509766	0.9754619750976562	0.0063074898719787595	-0.07181990051269531	0.9558699951171875	0.013631600379943848	-0.03188689994812012	0.9325869750976562	0.013857099533081054	-0.031621099472045895	0.9813140258789063	0.01741860008239746	-0.0511968994140625	0.9833980102539063	0.03114620018005371	-0.06262990188598633	0.9663359985351563	0.03324100112915039	-0.024158599853515626	0.945593994140625	0.08382450103759766	-0.07469740295410156	0.955614013671875	0.07173979949951172	-0.05703310012817383	0.959427001953125	0.05969549942016601	-0.04102270126342773	0.9612020263671875	0.04172700119018555	-0.014913200378417969	0.9644439697265625	-0.007988289833068847	0.05268610000610351	0.9685499877929687
5	0.16666666666666666	-0.004760079860687256	-0.05660120010375977	1.0069000244140625	-0.005113349914550781	-0.03743270111083984	0.9909130249023438	-0.022893600463867188	-0.01776009941101074	0.9773900146484376	-0.02413290023803711	0.015726200103759767	0.9717039794921875	-0.01432040023803711	-0.12409300231933594	0.95427001953125	-0.015061200141906738	-0.10139700317382813	0.9512680053710938	-0.015395000457763671	-0.07823829650878907	0.9471799926757812	-0.012126399993896484	-0.035843299865722655	0.9324240112304687	-0.001581089973449707	-0.035634998321533204	0.97010400390625	6.577999796718001e-06	-0.057290298461914066	0.9748270263671875	0.006413750171661377	-0.0720270004272461	0.9552319946289063	0.013791399955749512	-0.03185029983520508	0.9318369750976563	0.014073200225830078	-0.03189469909667969	0.9808989868164063	0.017467100143432616	-0.051429798126220706	0.9825380249023438	0.031232400894165038	-0.0629462013244629	0.9659539794921875	0.03343489837646484	-0.024444900512695312	0.9451209716796874	0.0838489990234375	-0.07509059906005859	0.9550910034179687	0.07183750152587891	-0.0574192008972168	0.9590800170898437	0.05981330108642578	-0.0413302001953125	0.9608170166015625	0.04187960052490235	-0.015012200355529786	0.9640159912109375	-0.0074040799140930175	0.052421600341796874	0.9683709716796876
6	0.2	-0.004380020141601562	-0.05707289886474609	1.0063800048828124	-0.00548386001586914	-0.03841839981079102	0.990010009765625	-0.022903900146484375	-0.018128700256347656	0.97685498046875	-0.02372279930114746	0.015481900215148926	0.97147802734375	-0.013524399757385255	-0.12447100067138672	0.9534959716796875	-0.014378199577331543	-0.10176499938964843	0.9505239868164063	-0.01468850040435791	-0.07858409881591796	0.9462890014648437	-0.011680899620056152	-0.03603919982910156	0.93193798828125	-0.001434939980506897	-0.03614899826049805	0.968989013671875	0.000513257026672363	-0.05738539886474609	0.9740280151367188	0.0070486202239990236	-0.07229229736328124	0.9545139770507812	0.014239500045776367	-0.03208840179443359	0.9314569702148437	0.01471660041809082	-0.03276169967651367	0.9797030029296875	0.017863399505615236	-0.05189469909667969	0.9818569946289063	0.03167519950866699	-0.06321689987182617	0.9654039916992188	0.03389289855957031	-0.024562299728393553	0.9446580200195313	0.08435230255126953	-0.0752384033203125	0.9546619873046875	0.07221369934082031	-0.05751490020751953	0.9584749755859375	0.060251899719238285	-0.0415880012512207	0.960416015625	0.042261001586914065	-0.01526930046081543	0.9632449951171875	-0.0071576499938964845	0.05214419937133789	0.9679249877929688
